<svg width="383" height="128" viewBox="0 0 383 128" fill="none" xmlns="http://www.w3.org/2000/svg">
<path d="M352.5 0.000371717H30.517C29.3433 0.000371717 28.1837 0.000371717 27.0131 0.00677172C26.0333 0.0131717 25.0612 0.0317637 24.0719 0.0474117C21.9227 0.0726975 19.7786 0.261736 17.6582 0.612884C15.5407 0.971676 13.4896 1.6481 11.5742 2.61928C9.66109 3.59868 7.91305 4.87131 6.39348 6.391C4.86592 7.90641 3.59259 9.65802 2.62243 11.5785C1.6496 13.4951 0.975041 15.549 0.622042 17.6691C0.265687 19.7866 0.0739293 21.9284 0.0484895 24.0755C0.0187877 25.0566 0.0156511 26.041 0 27.0223V100.988C0.0156511 101.981 0.0187877 102.944 0.0484895 103.938C0.0739371 106.085 0.265695 108.227 0.622042 110.344C0.974066 112.465 1.64867 114.52 2.62243 116.438C3.59214 118.352 4.86566 120.097 6.39348 121.604C7.90729 123.13 9.65646 124.403 11.5742 125.375C13.4896 126.349 15.5405 127.03 17.6582 127.394C19.779 127.742 21.9229 127.931 24.0719 127.96C25.0612 127.981 26.0333 127.994 27.0131 127.994C28.1837 128 29.3433 128 30.517 128H352.5C353.651 128 354.819 128 355.97 127.994C356.945 127.994 357.945 127.981 358.92 127.96C361.065 127.933 363.205 127.744 365.322 127.394C367.446 127.027 369.504 126.347 371.429 125.375C373.345 124.403 375.093 123.129 376.605 121.604C378.129 120.091 379.405 118.347 380.387 116.438C381.353 114.519 382.022 112.464 382.368 110.344C382.725 108.226 382.924 106.085 382.963 103.938C382.975 102.944 382.975 101.981 382.975 100.988C383 99.8253 383 98.6692 383 97.4877V30.516C383 29.3441 383 28.1816 382.975 27.0223C382.975 26.041 382.975 25.0566 382.963 24.0754C382.924 21.9281 382.725 19.7867 382.368 17.669C382.021 15.5501 381.353 13.4964 380.387 11.5784C378.411 7.729 375.278 4.59565 371.429 2.619C369.504 1.65019 367.446 0.973941 365.322 0.612596C363.206 0.259901 361.066 0.0707966 358.92 0.0469637C357.945 0.0313477 356.945 0.0125957 355.97 0.00635572C354.819 -4.4283e-05 353.651 0.000371717 352.5 0.000371717Z" fill="#A6A6A6"/>
<path d="M27.0287 125.2C26.0536 125.2 25.102 125.187 24.1345 125.166C22.1302 125.14 20.1306 124.965 18.152 124.644C16.3072 124.326 14.52 123.735 12.8494 122.891C11.1942 122.053 9.68449 120.954 8.37815 119.637C7.0529 118.336 5.94957 116.826 5.11188 115.169C4.26496 113.5 3.67884 111.712 3.37394 109.866C3.04467 107.882 2.86653 105.876 2.84104 103.866C2.82074 103.191 2.79418 100.944 2.79418 100.944V27.0218C2.79418 27.0218 2.82247 24.8093 2.8412 24.1593C2.8656 22.1519 3.04271 20.1492 3.371 18.1687C3.67646 16.3176 4.26303 14.524 5.11041 12.85C5.94502 11.1934 7.04223 9.68271 8.35949 8.37653C9.67528 7.05794 11.1898 5.95389 12.8479 5.10463C14.5146 4.26266 16.2984 3.6759 18.1395 3.36402C20.1245 3.03943 22.1311 2.86394 24.1423 2.83903L27.0303 2.79996H355.954L358.877 2.8406C360.87 2.86427 362.858 3.0382 364.825 3.36088C366.684 3.67668 368.487 4.26753 370.173 5.114C373.494 6.82551 376.197 9.53328 377.902 12.8578C378.736 14.5202 379.313 16.2992 379.615 18.1343C379.947 20.1311 380.133 22.1495 380.171 24.1734C380.181 25.0796 380.181 26.0531 380.181 27.0218C380.206 28.2218 380.206 29.364 380.206 30.5156V97.4873C380.206 98.6499 380.206 99.7843 380.181 100.928C380.181 101.969 380.181 102.922 380.168 103.903C380.131 105.891 379.948 107.873 379.621 109.834C379.322 111.694 378.74 113.496 377.893 115.178C377.049 116.818 375.952 118.314 374.642 119.612C373.335 120.937 371.822 122.041 370.163 122.884C368.482 123.736 366.682 124.329 364.825 124.644C362.846 124.967 360.846 125.141 358.842 125.166C357.905 125.187 356.923 125.2 355.97 125.2L352.5 125.206L27.0287 125.2Z" fill="black"/>
<path d="M79.2759 64.9621C79.3104 62.2912 80.0199 59.6724 81.3387 57.3494C82.6574 55.0263 84.5425 53.0745 86.8184 51.6755C85.3726 49.611 83.4652 47.912 81.2477 46.7134C79.0302 45.5149 76.5637 44.8498 74.0442 44.771C68.6696 44.2069 63.4591 47.9864 60.7203 47.9864C57.9285 47.9864 53.7117 44.827 49.1708 44.9204C46.2337 45.0152 43.3712 45.8692 40.8623 47.399C38.3534 48.9288 36.2837 51.0822 34.8547 53.6496C28.6647 64.3645 33.2819 80.1119 39.2114 88.773C42.178 93.0141 45.6452 97.7516 50.1819 97.5836C54.6214 97.3995 56.2795 94.7532 61.6383 94.7532C66.9473 94.7532 68.5029 97.5836 73.1317 97.4768C77.8955 97.3994 80.8969 93.2168 83.7594 88.9355C85.891 85.9136 87.5312 82.5736 88.6193 79.0395C85.8517 77.8691 83.4899 75.9102 81.8284 73.4068C80.1669 70.9035 79.2792 67.9665 79.2759 64.9621Z" fill="white"/>
<path d="M70.533 39.0748C73.1304 35.9573 74.41 31.9504 74.1002 27.9048C70.1319 28.3215 66.4664 30.2177 63.8339 33.2156C62.5468 34.6801 61.561 36.3839 60.9329 38.2296C60.3048 40.0752 60.0467 42.0266 60.1733 43.972C62.1582 43.9925 64.1218 43.5623 65.9162 42.7141C67.7107 41.8658 69.2893 40.6214 70.533 39.0748Z" fill="white"/>
<path d="M135.394 86.8468H120.244L116.606 97.5875H110.189L124.539 57.8499H131.205L145.555 97.5875H139.029L135.394 86.8468ZM121.813 81.8906H133.822L127.902 64.4593H127.736L121.813 81.8906Z" fill="white"/>
<path d="M176.546 83.1031C176.546 92.1062 171.726 97.8906 164.453 97.8906C162.61 97.9869 160.778 97.5626 159.165 96.6662C157.553 95.7697 156.225 94.4374 155.335 92.8218H155.198V107.172H149.25V68.6156H155.007V73.4343H155.116C156.048 71.8264 157.397 70.501 159.022 69.5991C160.647 68.6972 162.486 68.2526 164.343 68.3124C171.698 68.3125 176.546 74.125 176.546 83.1031ZM170.432 83.1031C170.432 77.2375 167.4 73.3812 162.774 73.3812C158.229 73.3812 155.173 77.3187 155.173 83.1031C155.173 88.9406 158.229 92.85 162.774 92.85C167.4 92.85 170.432 89.0218 170.432 83.1031Z" fill="white"/>
<path d="M208.439 83.1031C208.439 92.1062 203.62 97.8906 196.346 97.8906C194.504 97.9869 192.672 97.5626 191.059 96.6662C189.447 95.7697 188.119 94.4374 187.229 92.8218H187.091V107.172H181.143V68.6156H186.901V73.4343H187.01C187.941 71.8264 189.291 70.501 190.916 69.5991C192.541 68.6972 194.379 68.2526 196.237 68.3125C203.591 68.3125 208.439 74.125 208.439 83.1031ZM202.326 83.1031C202.326 77.2375 199.294 73.3812 194.668 73.3812C190.123 73.3812 187.066 77.3187 187.066 83.1031C187.066 88.9406 190.123 92.85 194.668 92.85C199.294 92.85 202.326 89.0218 202.326 83.1031Z" fill="white"/>
<path d="M229.518 86.5156C229.959 90.4562 233.788 93.0436 239.02 93.0436C244.034 93.0436 247.641 90.4561 247.641 86.9029C247.641 83.8185 245.465 81.9717 240.314 80.7061L235.163 79.4654C227.865 77.7029 224.477 74.2904 224.477 68.7529C224.477 61.8967 230.453 57.1873 238.939 57.1873C247.337 57.1873 253.095 61.8967 253.289 68.7529H247.284C246.925 64.7873 243.646 62.3936 238.855 62.3936C234.063 62.3936 230.784 64.8154 230.784 68.3404C230.784 71.1498 232.878 72.8029 238.001 74.0684L242.38 75.1434C250.535 77.0716 253.923 80.3466 253.923 86.1591C253.923 93.5934 248 98.2497 238.579 98.2497C229.765 98.2497 223.814 93.7028 223.43 86.5153L229.518 86.5156Z" fill="white"/>
<path d="M266.76 61.7593V68.6156H272.271V73.325H266.76V89.2968C266.76 91.7781 267.863 92.9343 270.286 92.9343C270.94 92.9229 271.593 92.877 272.242 92.7967V97.478C271.153 97.6814 270.046 97.7736 268.939 97.753C263.072 97.753 260.784 95.5498 260.784 89.9311V73.325H256.571V68.6156H260.784V61.7593H266.76Z" fill="white"/>
<path d="M275.462 83.1031C275.462 73.9875 280.832 68.2593 289.205 68.2593C297.607 68.2593 302.952 73.9874 302.952 83.1031C302.952 92.2437 297.635 97.9468 289.205 97.9468C280.778 97.9468 275.462 92.2437 275.462 83.1031ZM296.891 83.1031C296.891 76.85 294.025 73.1593 289.205 73.1593C284.386 73.1593 281.522 76.8781 281.522 83.1031C281.522 89.3812 284.386 93.0437 289.205 93.0437C294.025 93.0437 296.891 89.3812 296.891 83.1031Z" fill="white"/>
<path d="M307.856 68.6156H313.529V73.5468H313.666C314.05 72.0067 314.953 70.6456 316.222 69.6924C317.491 68.7391 319.05 68.2518 320.636 68.3124C321.322 68.31 322.005 68.3844 322.674 68.5343V74.0968C321.809 73.8324 320.906 73.711 320.002 73.7374C319.138 73.7024 318.276 73.8547 317.477 74.1839C316.677 74.5132 315.958 75.0115 315.369 75.6448C314.78 76.278 314.335 77.0312 314.065 77.8525C313.795 78.6739 313.706 79.5439 313.804 80.403V97.5874H307.856L307.856 68.6156Z" fill="white"/>
<path d="M350.098 89.0781C349.298 94.3374 344.175 97.9468 337.621 97.9468C329.191 97.9468 323.959 92.2999 323.959 83.2406C323.959 74.1531 329.219 68.2593 337.371 68.2593C345.388 68.2593 350.43 73.7655 350.43 82.5499V84.5874H329.963V84.9468C329.869 86.0131 330.002 87.0872 330.355 88.0979C330.707 89.1086 331.271 90.0327 332.008 90.8088C332.746 91.585 333.64 92.1954 334.631 92.5996C335.622 93.0038 336.688 93.1924 337.758 93.153C339.164 93.2847 340.575 92.9592 341.78 92.225C342.986 91.4908 343.922 90.3871 344.45 89.078L350.098 89.0781ZM329.991 80.4312H344.478C344.532 79.4725 344.386 78.5131 344.051 77.6132C343.716 76.7134 343.199 75.8924 342.532 75.202C341.864 74.5115 341.061 73.9665 340.173 73.601C339.285 73.2355 338.331 73.0574 337.371 73.0781C336.402 73.0723 335.442 73.2584 334.546 73.6255C333.649 73.9927 332.835 74.5337 332.149 75.2173C331.463 75.901 330.919 76.7137 330.548 77.6086C330.178 78.5034 329.989 79.4628 329.991 80.4312Z" fill="white"/>
<path d="M121.068 27.9392C122.315 27.8497 123.566 28.038 124.731 28.4906C125.897 28.9432 126.947 29.6487 127.807 30.5563C128.666 31.4639 129.314 32.551 129.702 33.739C130.091 34.9271 130.211 36.1866 130.054 37.4266C130.054 43.5266 126.756 47.033 121.068 47.033H114.169V27.9392H121.068ZM117.135 44.3328H120.736C121.627 44.386 122.519 44.2399 123.346 43.9052C124.174 43.5704 124.916 43.0554 125.52 42.3976C126.123 41.7398 126.572 40.9557 126.834 40.1025C127.096 39.2494 127.164 38.3485 127.034 37.4656C127.155 36.5861 127.08 35.6908 126.814 34.8439C126.548 33.997 126.097 33.2194 125.496 32.5668C124.894 31.9142 124.155 31.4028 123.332 31.0693C122.509 30.7357 121.623 30.5882 120.736 30.6374H117.135V44.3328Z" fill="white"/>
<path d="M133.404 39.8218C133.314 38.8749 133.422 37.9195 133.722 37.0169C134.023 36.1142 134.508 35.2843 135.148 34.5804C135.788 33.8765 136.568 33.314 137.438 32.9291C138.309 32.5442 139.249 32.3454 140.201 32.3454C141.152 32.3454 142.093 32.5442 142.963 32.9291C143.834 33.314 144.614 33.8765 145.253 34.5804C145.893 35.2843 146.379 36.1142 146.68 37.0169C146.98 37.9195 147.088 38.8749 146.998 39.8218C147.09 40.7698 146.983 41.7265 146.683 42.6306C146.384 43.5347 145.898 44.3661 145.258 45.0714C144.618 45.7767 143.837 46.3404 142.967 46.7261C142.096 47.1118 141.154 47.311 140.201 47.311C139.248 47.311 138.306 47.1118 137.435 46.7261C136.564 46.3404 135.784 45.7767 135.144 45.0714C134.504 44.3661 134.018 43.5347 133.719 42.6306C133.419 41.7265 133.312 40.7698 133.404 39.8218ZM144.072 39.8218C144.072 36.6984 142.669 34.8719 140.206 34.8719C137.733 34.8719 136.342 36.6984 136.342 39.8219C136.342 42.9703 137.733 44.7828 140.206 44.7828C142.669 44.7828 144.072 42.9578 144.072 39.8218Z" fill="white"/>
<path d="M165.067 47.0328H162.116L159.137 36.4202H158.912L155.946 47.0328H153.024L149.051 32.6234H151.936L154.518 43.6186H154.73L157.693 32.6234H160.422L163.385 43.6186H163.61L166.179 32.6234H169.024L165.067 47.0328Z" fill="white"/>
<path d="M172.365 32.6234H175.103V34.9124H175.316C175.676 34.0903 176.284 33.4011 177.055 32.9409C177.826 32.4807 178.722 32.2725 179.616 32.3452C180.318 32.2925 181.022 32.3982 181.677 32.6545C182.332 32.9108 182.92 33.3112 183.399 33.8259C183.878 34.3406 184.236 34.9565 184.444 35.6279C184.653 36.2993 184.708 37.0091 184.605 37.7046V47.0326H181.761V38.4187C181.761 36.1031 180.754 34.9515 178.651 34.9515C178.175 34.9293 177.699 35.0104 177.257 35.189C176.816 35.3677 176.418 35.6397 176.091 35.9866C175.764 36.3334 175.516 36.7468 175.364 37.1984C175.212 37.65 175.159 38.1292 175.209 38.6031V47.0328H172.365L172.365 32.6234Z" fill="white"/>
<path d="M189.137 26.9984H191.981V47.0327H189.137V26.9984Z" fill="white"/>
<path d="M195.935 39.8218C195.845 38.8748 195.953 37.9194 196.254 37.0167C196.554 36.1141 197.04 35.2841 197.68 34.5802C198.32 33.8762 199.1 33.3138 199.97 32.9289C200.84 32.544 201.781 32.3452 202.733 32.3452C203.684 32.3452 204.625 32.544 205.495 32.9289C206.366 33.3138 207.146 33.8762 207.786 34.5802C208.426 35.2841 208.911 36.1141 209.212 37.0167C209.512 37.9194 209.621 38.8748 209.53 39.8218C209.622 40.7698 209.515 41.7265 209.216 42.6306C208.916 43.5347 208.43 44.3661 207.79 45.0714C207.15 45.7767 206.369 46.3403 205.498 46.726C204.627 47.1117 203.685 47.3109 202.733 47.3109C201.78 47.3109 200.838 47.1117 199.967 46.726C199.096 46.3403 198.315 45.7767 197.675 45.0714C197.035 44.3661 196.55 43.5347 196.25 42.6306C195.95 41.7265 195.843 40.7698 195.935 39.8218ZM206.603 39.8218C206.603 36.6984 205.2 34.8719 202.737 34.8719C200.264 34.8719 198.873 36.6984 198.873 39.8219C198.873 42.9703 200.264 44.7828 202.737 44.7828C205.2 44.7828 206.603 42.9578 206.603 39.8218Z" fill="white"/>
<path d="M212.524 42.9578C212.524 40.364 214.456 38.8687 217.885 38.6562L221.789 38.4312V37.1875C221.789 35.6656 220.782 34.8062 218.838 34.8062C217.25 34.8062 216.15 35.389 215.835 36.4078H213.081C213.372 33.9328 215.7 32.3453 218.969 32.3453C222.583 32.3453 224.621 34.1437 224.621 37.1875V47.0328H221.883V45.0078H221.658C221.201 45.7342 220.559 46.3263 219.799 46.7238C219.038 47.1213 218.186 47.3098 217.329 47.2702C216.724 47.3331 216.112 47.2686 215.533 47.0807C214.955 46.8929 214.422 46.5859 213.97 46.1796C213.517 45.7733 213.154 45.2767 212.906 44.7218C212.657 44.1669 212.527 43.5659 212.524 42.9578ZM221.789 41.7265V40.5218L218.269 40.7468C216.285 40.8796 215.384 41.5546 215.384 42.8249C215.384 44.1218 216.51 44.8765 218.057 44.8765C218.51 44.9224 218.968 44.8766 219.404 44.7419C219.839 44.6072 220.243 44.3864 220.591 44.0925C220.939 43.7986 221.224 43.4377 221.43 43.0312C221.636 42.6248 221.758 42.1811 221.789 41.7265Z" fill="white"/>
<path d="M228.359 39.8218C228.359 35.2687 230.7 32.3843 234.341 32.3843C235.242 32.3428 236.136 32.5585 236.919 33.0062C237.701 33.4539 238.34 34.115 238.761 34.9123H238.973V26.9984H241.818V47.0327H239.092V44.7561H238.867C238.414 45.5481 237.753 46.201 236.955 46.6442C236.157 47.0873 235.253 47.3038 234.341 47.2702C230.675 47.2704 228.359 44.3859 228.359 39.8218ZM231.297 39.8218C231.297 42.8781 232.738 44.7172 235.148 44.7172C237.545 44.7172 239.027 42.8516 239.027 39.8344C239.027 36.8312 237.529 34.939 235.148 34.939C232.753 34.939 231.297 36.7906 231.297 39.8218Z" fill="white"/>
<path d="M253.586 39.8218C253.495 38.8749 253.603 37.9195 253.904 37.0169C254.204 36.1142 254.69 35.2843 255.33 34.5804C255.97 33.8765 256.75 33.314 257.62 32.9291C258.49 32.5442 259.431 32.3454 260.382 32.3454C261.334 32.3454 262.275 32.5442 263.145 32.9291C264.015 33.314 264.795 33.8765 265.435 34.5804C266.075 35.2843 266.56 36.1142 266.861 37.0169C267.161 37.9195 267.27 38.8749 267.179 39.8218C267.271 40.7698 267.164 41.7265 266.865 42.6306C266.565 43.5347 266.08 44.3661 265.44 45.0714C264.799 45.7767 264.019 46.3404 263.148 46.7261C262.277 47.1118 261.335 47.311 260.382 47.311C259.43 47.311 258.488 47.1118 257.617 46.7261C256.746 46.3404 255.965 45.7767 255.325 45.0714C254.685 44.3661 254.199 43.5347 253.9 42.6306C253.6 41.7265 253.493 40.7698 253.586 39.8218ZM264.253 39.8218C264.253 36.6984 262.85 34.8719 260.387 34.8719C257.915 34.8719 256.524 36.6984 256.524 39.8219C256.524 42.9703 257.915 44.7828 260.387 44.7828C262.85 44.7828 264.253 42.9578 264.253 39.8218Z" fill="white"/>
<path d="M270.995 32.6234H273.733V34.9124H273.946C274.306 34.0903 274.915 33.4011 275.686 32.9409C276.456 32.4807 277.352 32.2725 278.247 32.3452C278.948 32.2925 279.652 32.3982 280.307 32.6545C280.962 32.9108 281.551 33.3112 282.03 33.8259C282.509 34.3406 282.866 34.9565 283.075 35.6279C283.283 36.2993 283.338 37.0091 283.235 37.7046V47.0326H280.391V38.4187C280.391 36.1031 279.384 34.9515 277.281 34.9515C276.805 34.9293 276.33 35.0104 275.888 35.189C275.446 35.3677 275.048 35.6397 274.721 35.9866C274.394 36.3334 274.146 36.7468 273.994 37.1984C273.842 37.65 273.789 38.1292 273.84 38.6031V47.0328H270.995V32.6234Z" fill="white"/>
<path d="M299.307 29.0359V32.689H302.43V35.0843H299.307V42.4937C299.307 44.0031 299.929 44.664 301.345 44.664C301.707 44.6629 302.07 44.6409 302.43 44.5984V46.9671C301.919 47.0585 301.401 47.1071 300.882 47.1124C297.719 47.1124 296.46 45.9999 296.46 43.2218V35.0842H294.172V32.6889H296.46V29.0359H299.307Z" fill="white"/>
<path d="M306.315 26.9984H309.134V34.939H309.359C309.737 34.1092 310.362 33.4161 311.148 32.9542C311.935 32.4923 312.844 32.284 313.754 32.3577C314.451 32.3198 315.149 32.4362 315.796 32.6988C316.443 32.9613 317.025 33.3635 317.499 33.8765C317.973 34.3896 318.328 35.001 318.539 35.667C318.749 36.3331 318.81 37.0373 318.717 37.7296V47.0328H315.87V38.4312C315.87 36.1296 314.798 34.964 312.788 34.964C312.299 34.9239 311.807 34.9911 311.347 35.1608C310.887 35.3306 310.47 35.5989 310.124 35.9468C309.778 36.2948 309.513 36.714 309.346 37.1753C309.18 37.6365 309.116 38.1286 309.159 38.6171V47.0327H306.315L306.315 26.9984Z" fill="white"/>
<path d="M335.302 43.1421C334.915 44.4591 334.078 45.5982 332.936 46.3603C331.795 47.1224 330.421 47.4588 329.057 47.3109C328.107 47.3359 327.164 47.1541 326.291 46.778C325.419 46.4019 324.639 45.8406 324.006 45.1329C323.372 44.4253 322.901 43.5883 322.623 42.6801C322.346 41.7719 322.269 40.8141 322.399 39.8734C322.273 38.9298 322.35 37.97 322.627 37.059C322.904 36.1481 323.373 35.3072 324.004 34.5934C324.634 33.8796 325.41 33.3094 326.279 32.9215C327.149 32.5337 328.092 32.3371 329.044 32.3453C333.054 32.3453 335.474 35.0845 335.474 39.6093V40.6016H325.297V40.7609C325.252 41.2897 325.319 41.822 325.492 42.3236C325.665 42.8252 325.941 43.285 326.302 43.6737C326.664 44.0623 327.102 44.3712 327.59 44.5805C328.078 44.7898 328.604 44.8948 329.135 44.8889C329.815 44.9706 330.504 44.8481 331.115 44.537C331.726 44.226 332.23 43.7404 332.564 43.142L335.302 43.1421ZM325.296 38.4984H332.576C332.612 38.0148 332.546 37.529 332.383 37.0723C332.22 36.6156 331.963 36.1981 331.629 35.8465C331.295 35.495 330.891 35.2172 330.443 35.0311C329.995 34.8449 329.513 34.7545 329.028 34.7656C328.537 34.7594 328.048 34.8518 327.593 35.0372C327.137 35.2226 326.723 35.4973 326.375 35.8452C326.027 36.1931 325.753 36.6071 325.568 37.0628C325.382 37.5184 325.29 38.0066 325.296 38.4984Z" fill="white"/>
</svg>
